<mxfile host="app.diagrams.net" modified="2024-05-24T01:05:14.536Z" agent="Mozilla/5.0 (Windows NT 10.0; Win64; x64) AppleWebKit/537.36 (KHTML, like Gecko) Chrome/123.0.0.0 Safari/537.36 OPR/109.0.0.0" etag="fVCbyVucbsdxa-NFKgLq" version="24.4.7" type="github">
  <diagram name="Page-1" id="_39pjZdVJDSr7a0l1p2f">
    <mxGraphModel dx="1867" dy="1964" grid="1" gridSize="10" guides="1" tooltips="1" connect="1" arrows="1" fold="1" page="1" pageScale="1" pageWidth="827" pageHeight="1169" math="0" shadow="0">
      <root>
        <mxCell id="0" />
        <mxCell id="1" parent="0" />
        <mxCell id="Uo10Osh_4zbd9FP0rsNF-9" style="edgeStyle=orthogonalEdgeStyle;rounded=0;orthogonalLoop=1;jettySize=auto;html=1;entryX=0.5;entryY=0;entryDx=0;entryDy=0;" parent="1" source="Uo10Osh_4zbd9FP0rsNF-1" target="Uo10Osh_4zbd9FP0rsNF-2" edge="1">
          <mxGeometry relative="1" as="geometry" />
        </mxCell>
        <mxCell id="Uo10Osh_4zbd9FP0rsNF-1" value="&lt;font style=&quot;font-size: 14px;&quot;&gt;&lt;b&gt;Início&lt;/b&gt;&lt;/font&gt;" style="ellipse;whiteSpace=wrap;html=1;" parent="1" vertex="1">
          <mxGeometry x="354" width="120" height="80" as="geometry" />
        </mxCell>
        <mxCell id="Uo10Osh_4zbd9FP0rsNF-10" style="edgeStyle=orthogonalEdgeStyle;rounded=0;orthogonalLoop=1;jettySize=auto;html=1;entryX=0.5;entryY=0;entryDx=0;entryDy=0;" parent="1" source="Uo10Osh_4zbd9FP0rsNF-2" target="Uo10Osh_4zbd9FP0rsNF-3" edge="1">
          <mxGeometry relative="1" as="geometry" />
        </mxCell>
        <mxCell id="Uo10Osh_4zbd9FP0rsNF-2" value="&lt;b&gt;&lt;font style=&quot;font-size: 14px;&quot;&gt;Prólogo&lt;/font&gt;&lt;/b&gt;" style="rounded=0;whiteSpace=wrap;html=1;" parent="1" vertex="1">
          <mxGeometry x="354" y="120" width="120" height="60" as="geometry" />
        </mxCell>
        <mxCell id="Uo10Osh_4zbd9FP0rsNF-11" style="edgeStyle=orthogonalEdgeStyle;rounded=0;orthogonalLoop=1;jettySize=auto;html=1;entryX=0.5;entryY=0;entryDx=0;entryDy=0;" parent="1" source="Uo10Osh_4zbd9FP0rsNF-3" target="Uo10Osh_4zbd9FP0rsNF-4" edge="1">
          <mxGeometry relative="1" as="geometry" />
        </mxCell>
        <mxCell id="Uo10Osh_4zbd9FP0rsNF-3" value="&lt;b&gt;&lt;font style=&quot;font-size: 14px;&quot;&gt;- Fase 1 -&lt;/font&gt;&lt;/b&gt;&lt;div&gt;&lt;b&gt;&lt;font style=&quot;font-size: 14px;&quot;&gt;Medo da nova fase.&lt;/font&gt;&lt;/b&gt;&lt;/div&gt;" style="rounded=0;whiteSpace=wrap;html=1;fillColor=#CC99FF;" parent="1" vertex="1">
          <mxGeometry x="351" y="220" width="126" height="80" as="geometry" />
        </mxCell>
        <mxCell id="Uo10Osh_4zbd9FP0rsNF-12" style="edgeStyle=orthogonalEdgeStyle;rounded=0;orthogonalLoop=1;jettySize=auto;html=1;entryX=0.5;entryY=0;entryDx=0;entryDy=0;" parent="1" source="Uo10Osh_4zbd9FP0rsNF-4" target="Uo10Osh_4zbd9FP0rsNF-5" edge="1">
          <mxGeometry relative="1" as="geometry" />
        </mxCell>
        <mxCell id="Uo10Osh_4zbd9FP0rsNF-4" value="&lt;b&gt;&lt;font style=&quot;font-size: 14px;&quot;&gt;- Fase 2 -&amp;nbsp;&lt;/font&gt;&lt;/b&gt;&lt;div&gt;&lt;b&gt;&lt;font style=&quot;font-size: 14px;&quot;&gt;Aversão ao mundo.&lt;/font&gt;&lt;/b&gt;&lt;/div&gt;" style="rounded=0;whiteSpace=wrap;html=1;fillColor=#99FF99;" parent="1" vertex="1">
          <mxGeometry x="354" y="340" width="120" height="60" as="geometry" />
        </mxCell>
        <mxCell id="Uo10Osh_4zbd9FP0rsNF-13" style="edgeStyle=orthogonalEdgeStyle;rounded=0;orthogonalLoop=1;jettySize=auto;html=1;entryX=0.5;entryY=0;entryDx=0;entryDy=0;" parent="1" source="Uo10Osh_4zbd9FP0rsNF-5" target="Uo10Osh_4zbd9FP0rsNF-6" edge="1">
          <mxGeometry relative="1" as="geometry" />
        </mxCell>
        <mxCell id="Uo10Osh_4zbd9FP0rsNF-5" value="&lt;font style=&quot;font-size: 14px;&quot;&gt;&lt;b&gt;- Fase 3 -&lt;/b&gt;&lt;/font&gt;&lt;div&gt;&lt;font style=&quot;font-size: 14px;&quot;&gt;&lt;b&gt;Frustração&lt;/b&gt;&lt;/font&gt;&lt;/div&gt;" style="rounded=0;whiteSpace=wrap;html=1;fillColor=#FF9999;" parent="1" vertex="1">
          <mxGeometry x="354" y="440" width="120" height="60" as="geometry" />
        </mxCell>
        <mxCell id="Uo10Osh_4zbd9FP0rsNF-14" style="edgeStyle=orthogonalEdgeStyle;rounded=0;orthogonalLoop=1;jettySize=auto;html=1;entryX=0.5;entryY=0;entryDx=0;entryDy=0;" parent="1" source="Uo10Osh_4zbd9FP0rsNF-6" target="Uo10Osh_4zbd9FP0rsNF-7" edge="1">
          <mxGeometry relative="1" as="geometry" />
        </mxCell>
        <mxCell id="Uo10Osh_4zbd9FP0rsNF-6" value="&lt;b&gt;&lt;font style=&quot;font-size: 14px;&quot;&gt;- Fase 4 - Percepção e entendimento do processo.&lt;/font&gt;&lt;/b&gt;" style="rounded=0;whiteSpace=wrap;html=1;fillColor=#9999FF;" parent="1" vertex="1">
          <mxGeometry x="354" y="540" width="120" height="70" as="geometry" />
        </mxCell>
        <mxCell id="Uo10Osh_4zbd9FP0rsNF-15" style="edgeStyle=orthogonalEdgeStyle;rounded=0;orthogonalLoop=1;jettySize=auto;html=1;entryX=0.5;entryY=0;entryDx=0;entryDy=0;" parent="1" source="Uo10Osh_4zbd9FP0rsNF-7" target="Uo10Osh_4zbd9FP0rsNF-8" edge="1">
          <mxGeometry relative="1" as="geometry" />
        </mxCell>
        <mxCell id="Uo10Osh_4zbd9FP0rsNF-7" value="&lt;font style=&quot;font-size: 14px;&quot;&gt;&lt;b&gt;- Fase 5 - aceitação.&lt;/b&gt;&lt;/font&gt;" style="rounded=0;whiteSpace=wrap;html=1;fillColor=#FFFF99;" parent="1" vertex="1">
          <mxGeometry x="354" y="640" width="120" height="60" as="geometry" />
        </mxCell>
        <mxCell id="Uo10Osh_4zbd9FP0rsNF-8" value="&lt;b&gt;&lt;font style=&quot;font-size: 14px;&quot;&gt;Fim&lt;/font&gt;&lt;/b&gt;" style="ellipse;whiteSpace=wrap;html=1;" parent="1" vertex="1">
          <mxGeometry x="354" y="740" width="120" height="80" as="geometry" />
        </mxCell>
        <mxCell id="Okr_N0PfBx7kYIQcWiLH-1" value="&lt;font style=&quot;font-size: 14px;&quot;&gt;&lt;b&gt;Desenvolvimento da História&lt;/b&gt;&lt;/font&gt;" style="rounded=0;whiteSpace=wrap;html=1;" parent="1" vertex="1">
          <mxGeometry x="313.5" y="-40" width="201" height="30" as="geometry" />
        </mxCell>
      </root>
    </mxGraphModel>
  </diagram>
</mxfile>
